<svg width="198" height="64" viewBox="0 0 198 64" fill="none" xmlns="http://www.w3.org/2000/svg">
<path d="M80.932 17.156C81.604 17.252 82.06 17.456 82.3 17.768C82.564 18.08 82.696 18.488 82.696 18.992C82.696 20.648 81.808 21.416 80.032 21.296L78.772 21.188C77.356 21.068 75.94 20.972 74.524 20.9C73.132 20.828 71.668 20.792 70.132 20.792H68.512C68.224 24.344 67.924 27.584 67.612 30.512L73.804 30.404C74.692 30.404 75.28 30.56 75.568 30.872C75.88 31.184 76.036 31.604 76.036 32.132C76.036 32.948 75.796 33.596 75.316 34.076C74.836 34.532 74.152 34.76 73.264 34.76H67.108L66.892 36.308C66.388 40.268 65.308 43.088 63.652 44.768C62.02 46.448 59.764 47.288 56.884 47.288C55.252 47.288 53.752 46.94 52.384 46.244C51.016 45.524 50.008 44.66 49.36 43.652C49.096 43.244 48.964 42.752 48.964 42.176C48.964 41.6 49.096 41.096 49.36 40.664C49.648 40.232 49.996 40.016 50.404 40.016C50.692 40.016 50.968 40.112 51.232 40.304C51.52 40.496 51.88 40.868 52.312 41.42C53.464 42.932 54.892 43.688 56.596 43.688C57.964 43.688 59.104 43.136 60.016 42.032C60.952 40.904 61.552 39.14 61.816 36.74L62.032 34.76H60.304C59.752 34.76 59.272 34.604 58.864 34.292C58.48 33.98 58.288 33.536 58.288 32.96C58.288 32.216 58.48 31.652 58.864 31.268C59.248 30.86 59.812 30.656 60.556 30.656C61.228 30.656 61.888 30.644 62.536 30.62C62.824 27.98 63.136 24.776 63.472 21.008C60.88 21.248 59.056 21.668 58 22.268C56.944 22.868 56.416 23.756 56.416 24.932C56.416 25.748 56.656 26.528 57.136 27.272C57.28 27.488 57.352 27.704 57.352 27.92C57.352 28.352 57.112 28.736 56.632 29.072C56.152 29.384 55.612 29.54 55.012 29.54C54.364 29.54 53.812 29.348 53.356 28.964C53.068 28.724 52.792 28.232 52.528 27.488C52.264 26.744 52.132 25.916 52.132 25.004C52.132 22.028 53.656 19.868 56.704 18.524C59.776 17.18 64.252 16.508 70.132 16.508C74.212 16.508 77.812 16.724 80.932 17.156ZM80.0289 47.18C78.9489 47.18 78.0609 46.688 77.3649 45.704C76.6929 44.696 76.3569 43.448 76.3569 41.96C76.3569 40.16 76.4769 38.516 76.7169 37.028C76.9569 35.516 77.3529 33.92 77.9049 32.24C78.1449 31.52 78.4809 31.004 78.9129 30.692C79.3449 30.38 80.0289 30.224 80.9649 30.224C81.4929 30.224 81.8529 30.308 82.0449 30.476C82.2609 30.644 82.3689 30.896 82.3689 31.232C82.3689 31.424 82.2369 32.072 81.9729 33.176C81.7329 34.064 81.5409 34.868 81.3969 35.588C80.9169 38.108 80.6769 39.788 80.6769 40.628C80.6769 41.132 80.7369 41.492 80.8569 41.708C80.9769 41.9 81.1689 41.996 81.4329 41.996C81.7929 41.996 82.2369 41.636 82.7649 40.916C83.3169 40.196 83.8929 39.104 84.4929 37.64C85.1169 36.176 85.7169 34.376 86.2929 32.24C86.4849 31.52 86.7729 31.004 87.1569 30.692C87.5649 30.38 88.1649 30.224 88.9569 30.224C89.5089 30.224 89.8929 30.296 90.1089 30.44C90.3249 30.56 90.4329 30.8 90.4329 31.16C90.4329 31.76 90.1329 33.404 89.5329 36.092C88.8609 39.164 88.5249 41.06 88.5249 41.78C88.5249 42.236 88.6209 42.596 88.8129 42.86C89.0049 43.1 89.2569 43.22 89.5689 43.22C90.0489 43.22 90.6129 42.932 91.2609 42.356C91.9329 41.756 92.8209 40.796 93.9249 39.476C94.2129 39.14 94.5369 38.972 94.8969 38.972C95.2089 38.972 95.4489 39.116 95.6169 39.404C95.8089 39.692 95.9049 40.088 95.9049 40.592C95.9049 41.552 95.6769 42.296 95.2209 42.824C94.1889 44.096 93.0729 45.14 91.8729 45.956C90.6969 46.772 89.3529 47.18 87.8409 47.18C86.6889 47.18 85.8369 46.736 85.2849 45.848C84.7569 44.96 84.4929 43.712 84.4929 42.104C84.0849 43.736 83.4729 44.996 82.6569 45.884C81.8409 46.748 80.9649 47.18 80.0289 47.18ZM95.5418 47.18C94.6298 47.18 93.9818 46.7 93.5978 45.74C93.2378 44.78 93.0578 43.244 93.0578 41.132C93.0578 38.012 93.5018 35.048 94.3898 32.24C94.6058 31.544 94.9538 31.04 95.4338 30.728C95.9378 30.392 96.6338 30.224 97.5218 30.224C98.0018 30.224 98.3378 30.284 98.5298 30.404C98.7218 30.524 98.8178 30.752 98.8178 31.088C98.8178 31.472 98.6378 32.336 98.2778 33.68C98.0378 34.64 97.8458 35.48 97.7018 36.2C97.5578 36.92 97.4378 37.808 97.3418 38.864C98.1338 36.8 99.0218 35.12 100.006 33.824C100.99 32.528 101.95 31.604 102.886 31.052C103.846 30.5 104.722 30.224 105.514 30.224C107.074 30.224 107.854 31.004 107.854 32.564C107.854 32.876 107.746 33.632 107.53 34.832C107.338 35.792 107.242 36.392 107.242 36.632C107.242 37.472 107.542 37.892 108.142 37.892C108.814 37.892 109.678 37.364 110.734 36.308C111.046 35.996 111.37 35.84 111.706 35.84C112.018 35.84 112.258 35.984 112.426 36.272C112.618 36.536 112.714 36.896 112.714 37.352C112.714 38.24 112.474 38.936 111.994 39.44C111.322 40.136 110.53 40.736 109.618 41.24C108.73 41.72 107.782 41.96 106.774 41.96C105.502 41.96 104.53 41.636 103.858 40.988C103.21 40.34 102.886 39.464 102.886 38.36C102.886 38 102.922 37.64 102.994 37.28C103.042 36.8 103.066 36.476 103.066 36.308C103.066 35.924 102.934 35.732 102.67 35.732C102.31 35.732 101.83 36.14 101.23 36.956C100.654 37.748 100.078 38.804 99.5018 40.124C98.9258 41.444 98.4578 42.836 98.0978 44.3C97.8338 45.428 97.5218 46.196 97.1618 46.604C96.8258 46.988 96.2858 47.18 95.5418 47.18ZM111.925 47.18C111.013 47.18 110.365 46.7 109.981 45.74C109.621 44.78 109.441 43.244 109.441 41.132C109.441 38.012 109.885 35.048 110.773 32.24C110.989 31.544 111.337 31.04 111.817 30.728C112.321 30.392 113.017 30.224 113.905 30.224C114.385 30.224 114.721 30.284 114.913 30.404C115.105 30.524 115.201 30.752 115.201 31.088C115.201 31.472 115.021 32.336 114.661 33.68C114.421 34.64 114.229 35.48 114.085 36.2C113.941 36.92 113.821 37.808 113.725 38.864C114.517 36.8 115.405 35.12 116.389 33.824C117.373 32.528 118.333 31.604 119.269 31.052C120.229 30.5 121.105 30.224 121.897 30.224C123.457 30.224 124.237 31.004 124.237 32.564C124.237 33.5 123.973 35.192 123.445 37.64C122.989 39.728 122.761 41.108 122.761 41.78C122.761 42.74 123.109 43.22 123.805 43.22C124.285 43.22 124.849 42.932 125.497 42.356C126.169 41.756 127.057 40.796 128.161 39.476C128.449 39.14 128.773 38.972 129.133 38.972C129.445 38.972 129.685 39.116 129.853 39.404C130.045 39.692 130.141 40.088 130.141 40.592C130.141 41.552 129.913 42.296 129.457 42.824C128.425 44.096 127.309 45.14 126.109 45.956C124.933 46.772 123.589 47.18 122.077 47.18C120.853 47.18 119.929 46.832 119.305 46.136C118.681 45.416 118.369 44.384 118.369 43.04C118.369 42.368 118.537 41.168 118.873 39.44C119.185 37.928 119.341 36.884 119.341 36.308C119.341 35.924 119.209 35.732 118.945 35.732C118.633 35.732 118.189 36.14 117.613 36.956C117.061 37.748 116.485 38.804 115.885 40.124C115.309 41.444 114.841 42.836 114.481 44.3C114.217 45.428 113.905 46.196 113.545 46.604C113.209 46.988 112.669 47.18 111.925 47.18ZM131.944 27.848C130.936 27.848 130.18 27.62 129.676 27.164C129.172 26.684 128.92 26.024 128.92 25.184C128.92 24.344 129.244 23.648 129.892 23.096C130.564 22.52 131.392 22.232 132.376 22.232C133.264 22.232 133.984 22.448 134.536 22.88C135.088 23.312 135.364 23.924 135.364 24.716C135.364 25.676 135.052 26.444 134.428 27.02C133.804 27.572 132.976 27.848 131.944 27.848ZM131.656 47.18C130.096 47.18 128.956 46.628 128.236 45.524C127.54 44.42 127.192 42.956 127.192 41.132C127.192 40.052 127.324 38.672 127.588 36.992C127.876 35.288 128.236 33.704 128.668 32.24C128.884 31.472 129.172 30.944 129.532 30.656C129.892 30.368 130.468 30.224 131.26 30.224C132.484 30.224 133.096 30.632 133.096 31.448C133.096 32.048 132.868 33.44 132.412 35.624C131.836 38.264 131.548 40.052 131.548 40.988C131.548 41.708 131.644 42.26 131.836 42.644C132.028 43.028 132.352 43.22 132.808 43.22C133.24 43.22 133.78 42.92 134.428 42.32C135.076 41.72 135.94 40.772 137.02 39.476C137.308 39.14 137.632 38.972 137.992 38.972C138.304 38.972 138.544 39.116 138.712 39.404C138.904 39.692 139 40.088 139 40.592C139 41.552 138.772 42.296 138.316 42.824C135.94 45.728 133.72 47.18 131.656 47.18ZM155.311 38.972C155.623 38.972 155.863 39.116 156.031 39.404C156.223 39.692 156.319 40.088 156.319 40.592C156.319 41.552 156.091 42.296 155.635 42.824C154.603 44.096 153.487 45.14 152.287 45.956C151.111 46.772 149.767 47.18 148.255 47.18C146.983 47.18 145.951 46.724 145.159 45.812C143.791 46.7 142.363 47.156 140.875 47.18C140.563 51.812 139.855 55.676 138.751 58.772C137.647 61.892 136.027 63.452 133.891 63.452C132.595 63.452 131.635 62.984 131.011 62.048C130.387 61.112 130.075 59.816 130.075 58.16C130.075 55.808 130.615 53.06 131.695 49.916C132.775 46.796 134.443 43.352 136.699 39.584C136.699 36.08 136.675 33.644 136.627 32.276C136.603 31.58 136.879 31.028 137.455 30.62C138.031 30.212 138.751 30.008 139.615 30.008C140.119 30.008 140.479 30.116 140.695 30.332C140.935 30.524 141.067 30.92 141.091 31.52C141.091 32.12 141.103 32.564 141.127 32.852C141.895 31.892 142.651 31.208 143.395 30.8C144.139 30.368 144.931 30.152 145.771 30.152C147.115 30.152 148.207 30.692 149.047 31.772C149.911 32.852 150.343 34.268 150.343 36.02C150.343 37.292 150.139 38.528 149.731 39.728C149.323 40.928 148.759 42.02 148.039 43.004C148.543 43.148 148.963 43.22 149.299 43.22C150.091 43.22 150.847 42.932 151.567 42.356C152.287 41.78 153.211 40.82 154.339 39.476C154.627 39.14 154.951 38.972 155.311 38.972ZM141.055 43.724C141.919 43.532 142.711 43.064 143.431 42.32C144.175 41.552 144.763 40.616 145.195 39.512C145.627 38.384 145.843 37.208 145.843 35.984C145.843 35.264 145.699 34.724 145.411 34.364C145.123 33.98 144.739 33.788 144.259 33.788C143.395 33.788 142.351 34.7 141.127 36.524C141.103 37.58 141.091 39.128 141.091 41.168C141.091 42.272 141.079 43.124 141.055 43.724ZM134.179 59.924C134.827 59.924 135.367 58.508 135.799 55.676C136.231 52.868 136.507 49.364 136.627 45.164C135.595 47.564 134.779 49.856 134.179 52.04C133.579 54.224 133.279 56.06 133.279 57.548C133.279 58.316 133.375 58.904 133.567 59.312C133.735 59.72 133.939 59.924 134.179 59.924ZM169.475 38.972C169.787 38.972 170.027 39.116 170.195 39.404C170.387 39.692 170.483 40.088 170.483 40.592C170.483 41.552 170.255 42.296 169.799 42.824C168.911 43.904 167.651 44.9 166.019 45.812C164.411 46.724 162.683 47.18 160.835 47.18C158.315 47.18 156.359 46.496 154.967 45.128C153.575 43.76 152.879 41.888 152.879 39.512C152.879 37.856 153.227 36.32 153.923 34.904C154.619 33.464 155.579 32.324 156.803 31.484C158.051 30.644 159.455 30.224 161.015 30.224C162.407 30.224 163.523 30.644 164.363 31.484C165.203 32.3 165.623 33.416 165.623 34.832C165.623 36.488 165.023 37.916 163.823 39.116C162.647 40.292 160.643 41.228 157.811 41.924C158.411 43.028 159.551 43.58 161.231 43.58C162.311 43.58 163.535 43.208 164.903 42.464C166.295 41.696 167.495 40.7 168.503 39.476C168.791 39.14 169.115 38.972 169.475 38.972ZM160.403 33.752C159.515 33.752 158.759 34.268 158.135 35.3C157.535 36.332 157.235 37.58 157.235 39.044V39.116C158.651 38.78 159.767 38.276 160.583 37.604C161.399 36.932 161.807 36.152 161.807 35.264C161.807 34.808 161.675 34.448 161.411 34.184C161.171 33.896 160.835 33.752 160.403 33.752ZM186.204 40.052C186.516 40.052 186.756 40.196 186.924 40.484C187.116 40.772 187.212 41.168 187.212 41.672C187.212 42.536 187.008 43.28 186.6 43.904C185.184 46.088 183.168 47.18 180.552 47.18C179.424 47.18 178.416 46.964 177.528 46.532C176.664 46.076 175.956 45.428 175.404 44.588C174.012 46.292 172.392 47.144 170.544 47.144C169.224 47.144 168.18 46.76 167.412 45.992C166.644 45.224 166.26 44.204 166.26 42.932C166.26 41.732 166.536 40.76 167.088 40.016C167.64 39.272 168.42 38.9 169.428 38.9C170.292 38.9 170.724 39.224 170.724 39.872C170.724 40.064 170.7 40.4 170.652 40.88L170.544 42.248C170.544 42.968 170.856 43.328 171.48 43.328C171.936 43.328 172.368 43.064 172.776 42.536C173.208 41.984 173.556 41.24 173.82 40.304C174.108 39.368 174.252 38.336 174.252 37.208C174.252 36.344 174.144 35.624 173.928 35.048C173.712 34.448 173.448 34.148 173.136 34.148C172.872 34.148 172.68 34.22 172.56 34.364C172.44 34.484 172.32 34.7 172.2 35.012C172.056 35.396 171.864 35.708 171.624 35.948C171.384 36.164 170.964 36.272 170.364 36.272C169.836 36.272 169.416 36.092 169.104 35.732C168.792 35.348 168.636 34.772 168.636 34.004C168.636 32.78 169.008 31.82 169.752 31.124C170.496 30.428 171.456 30.08 172.632 30.08C173.64 30.08 174.552 30.332 175.368 30.836C176.184 31.316 176.808 32.024 177.24 32.96C177.96 32 178.764 31.28 179.652 30.8C180.564 30.32 181.452 30.08 182.316 30.08C183.252 30.08 183.96 30.296 184.44 30.728C184.944 31.16 185.196 31.856 185.196 32.816C185.196 33.896 184.992 34.748 184.584 35.372C184.176 35.972 183.684 36.272 183.108 36.272C182.58 36.272 182.22 36.164 182.028 35.948C181.836 35.732 181.692 35.42 181.596 35.012C181.548 34.724 181.476 34.508 181.38 34.364C181.284 34.22 181.116 34.148 180.876 34.148C180.588 34.148 180.276 34.424 179.94 34.976C179.628 35.504 179.352 36.212 179.112 37.1C178.896 37.988 178.788 38.912 178.788 39.872C178.788 40.952 179.028 41.816 179.508 42.464C180.012 43.112 180.612 43.436 181.308 43.436C182.628 43.436 183.936 42.488 185.232 40.592C185.472 40.232 185.796 40.052 186.204 40.052ZM192.36 47.18C191.304 47.18 190.5 46.892 189.948 46.316C189.42 45.74 189.156 44.984 189.156 44.048C189.156 42.968 189.456 42.104 190.056 41.456C190.68 40.808 191.544 40.484 192.648 40.484C193.704 40.484 194.496 40.748 195.024 41.276C195.576 41.78 195.852 42.536 195.852 43.544C195.852 44.648 195.54 45.536 194.916 46.208C194.292 46.856 193.44 47.18 192.36 47.18Z" fill="black"/>
<path d="M21.697 47.9127C28.791 47.8057 37.7878 44.0412 40.1963 38.6797C43.4466 31.0343 36.8001 24.9447 20.957 33.7342H10.5974V31.2614H16.5171C10.4006 28.1801 9.60173 24.5327 12.8173 14.6938C14.9929 9.2622 15.3301 6.19671 11.0907 5.05C9.8672 4.60466 5.79275 7.19244 4.69348 10.4901C3.98282 12.0823 3.23511 13.9781 2.45766 16.1773C0.925826 21.6819 0.658511 27.1452 1.38858 32.2498C2.34142 40.0892 7.93499 45.7866 17.9976 47.581C19.129 47.8264 20.3802 47.9325 21.697 47.9127ZM21.697 47.9127C15.8154 48.7608 13.6701 50.2762 12.0773 55M21.697 47.9127C27.4228 48.6897 29.3795 50.2616 30.5766 55" stroke="#B88E2F" stroke-width="2"/>
</svg>
